<svg width="1080" height="1080" xmlns="http://www.w3.org/2000/svg" style="vector-effect: non-scaling-stroke;" stroke="null" xml:space="preserve" version="1.1">
 <desc style="vector-effect: non-scaling-stroke;" stroke="null">Created with Fabric.js 5.2.4</desc>

 <g stroke="null">
  <title stroke="null">Layer 1</title>
  <g stroke="null" id="07a27ada-734a-4b14-80bc-4bd4d9f5e9c8" transform="matrix(1 0 0 1 540 540)"/>
  <g stroke="null" id="svg_2" transform="matrix(8.2785 0 0 8.32879 520.867 556.112)">
   <g stroke="null" id="svg_3">
    <g stroke="null" id="SvgjsG2587" transform="matrix(1.3 0 0 1.3 0 0)">
     <path stroke=" none" id="svg_4" fill-rule=" nonzero" fill=" rgb(255,255,255)" stroke-miterlimit="4" stroke-linejoin=" miter" stroke-dashoffset="0" stroke-dasharray=" none" stroke-linecap=" butt" d="m51.82222,-1.43803c0,1.7 -1.4,3.4 -1.6,5.1c-0.2,1.7 0.9,3.6 0.5,5.3c-0.4,1.7 -2.1,3 -2.6,4.6c-0.5,1.6 0.1,3.7 -0.6,5.3c-0.7,1.6 -2.7,2.5 -3.6,4c-0.9,1.5 -0.7,3.7 -1.7,5.1c-1,1.4 -3.2,1.9 -4.3,3.2c-1.1,1.3 -1.4,3.5 -2.7,4.6c-1.3,1.1 -3.5,1.2 -4.9,2.2c-1.4,1 -2.1,3.1 -3.6,4c-1.5,0.9 -3.6,0.4 -5.2,1.1c-1.6,0.7 -2.7,2.6 -4.3,3.1c-1.6,0.5 -3.6,-0.3 -5.3,0c-1.7,0.3 -3.2,2 -4.9,2.1c-1.7,0.1 -3.5,-1.1 -5.2,-1.1c-1.7,0 -3.5,1.3 -5.2,1.1c-1.7,-0.2 -3.2,-1.8 -4.9,-2.1c-1.7,-0.3 -3.7,0.5 -5.3,0c-1.6,-0.5 -2.8,-2.4 -4.3,-3.1c-1.5,-0.7 -3.9,-0.3 -5.4,-1.2c-1.5,-0.9 -2.2,-2.9 -3.6,-4c-1.4,-1.1 -3.6,-1 -4.9,-2.2c-1.3,-1.2 -1.5,-3.3 -2.7,-4.6c-1.2,-1.3 -3.3,-1.8 -4.3,-3.2c-1,-1.4 -0.8,-3.6 -1.7,-5.1c-0.9,-1.5 -2.9,-2.4 -3.6,-4c-0.7,-1.6 0,-3.7 -0.6,-5.3c-0.6,-1.6 -2.3,-2.9 -2.6,-4.6c-0.3,-1.7 0.7,-3.6 0.5,-5.3c-0.2,-1.7 -1.5,-3.3 -1.5,-5c0,-1.7 1.4,-3.4 1.6,-5.1c0.2,-1.7 -0.9,-3.7 -0.5,-5.3c0.4,-1.6 2.1,-3 2.6,-4.6c0.5,-1.6 -0.1,-3.7 0.6,-5.3c0.7,-1.6 2.7,-2.5 3.6,-4c0.9,-1.5 0.7,-3.7 1.7,-5.1c1,-1.4 3.2,-1.9 4.3,-3.2c1.1,-1.3 1.4,-3.5 2.7,-4.6c1.3,-1.1 3.5,-1.2 4.9,-2.2c1.4,-1 2.1,-3.1 3.6,-4c1.5,-0.9 3.6,-0.4 5.2,-1.1c1.6,-0.7 2.7,-2.6 4.3,-3.1c1.6,-0.5 3.6,0.3 5.3,0c1.7,-0.3 3.2,-2 4.9,-2.2c1.7,-0.2 3.5,1.1 5.2,1.1c1.7,0 3.6,-1.3 5.3,-1.1c1.7,0.2 3.2,1.8 4.9,2.1c1.7,0.3 3.7,-0.5 5.3,0c1.6,0.5 2.8,2.4 4.3,3.1c1.5,0.7 3.7,0.3 5.2,1.1c1.5,0.8 2.2,2.9 3.6,4c1.4,1.1 3.6,1 4.9,2.2c1.3,1.2 1.5,3.3 2.7,4.6c1.2,1.3 3.3,1.8 4.3,3.2c1,1.4 0.8,3.6 1.7,5.1c0.9,1.5 2.9,2.4 3.6,4c0.7,1.6 0,3.7 0.6,5.3c0.6,1.6 2.3,2.9 2.6,4.6c0.3,1.7 -0.7,3.6 -0.5,5.3c0.2,1.7 1.6,3.4 1.6,5.2z" vector-effect="non-scaling-stroke"/>
    </g>
    <g stroke="null" id="SvgjsG2588" transform="matrix(0.33 0 0 0.33 -0.1 -19.76)">
     <path stroke=" none" id="svg_5" fill-rule=" nonzero" fill=" rgb(51,3,13)" stroke-miterlimit="4" stroke-linejoin=" miter" stroke-dashoffset="0" stroke-dasharray=" none" stroke-linecap=" butt" d="m15.38247,-43.58193l-44.654,10.747l-13.894,-10.26l0,61.503l12.901,13.446l46.106,-20.325l41.292,16.377l0,-64.582l-41.751,-6.906zm11.324,27.329c-0.159,-0.359 -0.58,-0.52 -0.935,-0.361c-0.334,0.148 -0.669,0.313 -1.005,0.488c-0.173,-0.054 -0.344,-0.107 -0.522,-0.163c-2.68,-0.833 -5.85,-1.819 -8.35,-3.274l0,-19.926c0,-0.272 -0.221,-0.493 -0.493,-0.493c-0.272,0 -0.493,0.221 -0.493,0.493l0,19.302c-2.013,-1.394 -3.389,-3.182 -3.34,-5.577c0.001,-0.063 -0.01,-0.126 -0.031,-0.185c-1.782,-4.77 -0.707,-11.136 -0.123,-13.799l4.072,-0.98l38.849,6.426l0,16.253c-0.511,1.065 -1.292,1.978 -2.482,1.978c-0.343,0 -0.717,-0.074 -1.111,-0.22c-0.373,-0.138 -0.744,-0.208 -1.104,-0.208c-3.625,0 -4.997,6.795 -5.348,9.01c-4.45,-1.499 -12.54,-4.944 -15.175,-6.901c-0.542,-0.403 -1.411,-0.763 -2.509,-1.14c0.158,-0.2 0.211,-0.474 0.1,-0.723zm-42.492,-3.241c0.037,-0.364 -0.204,-0.703 -0.57,-0.769c-0.193,-0.036 -0.382,0.013 -0.532,0.118c-0.273,-0.159 -0.544,-0.313 -0.812,-0.453c-2.074,-1.086 -0.834,-7.65 0.62,-12.292l20.734,-4.99c0.401,0.451 0.837,1.074 1.106,1.883c0.521,1.562 0.319,2.516 -3.791,5.085c-1.182,0.738 -2.087,0.937 -2.886,1.111c-2.144,0.47 -3.369,0.985 -5.647,6.796c-1.295,3.302 -2.782,4.907 -4.545,4.907c-1.185,0 -2.443,-0.671 -3.677,-1.396zm-24.581,36.776l0,-9.809c0.704,-0.227 2.044,-0.678 4.111,-1.461c1.149,-0.437 1.179,-0.363 1.542,0.521c0.397,0.968 0.998,2.43 3.372,3.749c0.299,0.166 0.584,0.33 0.868,0.494l0,16.234c0,0.299 0.242,0.541 0.541,0.541c0.299,0 0.541,-0.242 0.541,-0.541l0,-15.592c4.684,2.858 6.812,5.27 6.012,6.869c-0.317,0.634 -0.285,1.269 0.092,1.838c1.008,1.521 4.514,2.289 7.015,2.502l-13.328,5.875l-10.766,-11.22zm56.152,-8.787l-30.24,13.33l-0.009,-0.146c-2.168,0.133 -7.03,-0.658 -7.99,-2.106c-0.177,-0.268 -0.187,-0.526 -0.031,-0.838c1.122,-2.244 -1.206,-5.096 -6.906,-8.483l0,-38.629c0,-0.299 -0.242,-0.541 -0.541,-0.541c-0.299,0 -0.541,0.242 -0.541,0.541l0,38.003c-0.129,-0.073 -0.25,-0.146 -0.383,-0.219c-2.067,-1.148 -2.567,-2.365 -2.932,-3.254c-0.46,-1.122 -0.906,-1.8 -2.821,-1.076c-1.771,0.672 -3.005,1.097 -3.757,1.344l0,-43.97l10.481,7.74l11.677,-2.81c-1.104,3.676 -2.972,11.327 0.043,12.906c0.298,0.156 0.601,0.331 0.905,0.509c-0.188,1.087 -0.348,2.17 -0.467,3.223c-0.044,0.389 0.236,0.74 0.625,0.784c0.027,0.003 0.054,0.004 0.081,0.004c0.355,0 0.663,-0.267 0.703,-0.629c0.097,-0.855 0.225,-1.732 0.368,-2.613c1.243,0.714 2.521,1.336 3.84,1.336c0,0 0,0 0,0c2.222,0 4.014,-1.813 5.476,-5.542c2.19,-5.584 3.222,-5.811 4.931,-6.185c0.835,-0.183 1.874,-0.41 3.202,-1.241c4.088,-2.555 4.993,-3.898 4.209,-6.249c-0.246,-0.738 -0.607,-1.339 -0.978,-1.826l5.598,-1.347c-0.62,2.964 -1.51,9.014 0.239,13.799c-0.021,2.961 1.828,5.074 4.341,6.661l0,11.653c-0.275,-0.206 -0.662,-0.196 -0.915,0.055l-0.72,0.714c-0.636,0.632 -1.273,1.265 -1.913,1.892c-0.279,0.273 -0.284,0.723 -0.01,1.002c0.139,0.142 0.322,0.213 0.506,0.213c0.179,0 0.358,-0.067 0.496,-0.203c0.642,-0.629 1.281,-1.264 1.92,-1.897l0.636,-0.632l0,12.764c0,0.272 0.221,0.493 0.493,0.493c0.272,0 0.493,-0.221 0.493,-0.493l0,-24.98c2.432,1.33 5.284,2.252 7.676,2.997c-0.37,0.225 -0.744,0.46 -1.128,0.722c-0.324,0.221 -0.407,0.661 -0.188,0.985c0.138,0.201 0.36,0.31 0.587,0.31c0.137,0 0.275,-0.04 0.397,-0.123c0.756,-0.515 1.477,-0.945 2.184,-1.312c1.396,0.45 2.533,0.864 3.097,1.283c3.071,2.282 12.122,5.981 16.026,7.235c0.051,0.017 0.102,0.024 0.153,0.024c0.094,0 0.188,-0.026 0.269,-0.078c0.125,-0.079 0.208,-0.211 0.228,-0.358c0.312,-2.43 1.718,-8.734 4.442,-8.734c0.24,0 0.495,0.049 0.756,0.146c0.506,0.188 0.997,0.283 1.459,0.283c1.063,0 1.866,-0.484 2.482,-1.174l0,40.029l-38.549,-15.292z" vector-effect="non-scaling-stroke"/>
    </g>
    <g stroke="null" id="SvgjsG2588" transform="matrix(0.33 0 0 0.33 -7.59 -25.83)">
     <path stroke=" none" id="svg_6" fill-rule=" nonzero" fill=" rgb(51,3,13)" stroke-miterlimit="4" stroke-linejoin=" miter" stroke-dashoffset="0" stroke-dasharray=" none" stroke-linecap=" butt" d="m7.42948,-7.43593c-0.373,-0.115 -0.771,0.096 -0.885,0.471c0,0 -0.208,0.679 -0.493,1.837c-0.094,0.38 0.138,0.764 0.519,0.857c0.057,0.014 0.114,0.021 0.17,0.021c0.318,0 0.608,-0.216 0.688,-0.54c0.272,-1.103 0.47,-1.752 0.473,-1.762c0.113,-0.374 -0.098,-0.77 -0.472,-0.884z" vector-effect="non-scaling-stroke"/>
    </g>
    <g stroke="null" id="SvgjsG2588" transform="matrix(0.33 0 0 0.33 0.16 -17.95)">
     <path stroke=" none" id="svg_7" fill-rule=" nonzero" fill=" rgb(51,3,13)" stroke-miterlimit="4" stroke-linejoin=" miter" stroke-dashoffset="0" stroke-dasharray=" none" stroke-linecap=" butt" d="m7.91248,-7.59593c-0.993,0.908 -1.9,1.688 -2.775,2.383c-0.306,0.244 -0.357,0.689 -0.113,0.996c0.14,0.176 0.347,0.268 0.555,0.268c0.155,0 0.31,-0.051 0.441,-0.154c0.9,-0.716 1.832,-1.517 2.849,-2.447c0.289,-0.264 0.309,-0.712 0.044,-1.001c-0.265,-0.289 -0.714,-0.311 -1.001,-0.045z" vector-effect="non-scaling-stroke"/>
    </g>
    <g stroke="null" id="SvgjsG2588" transform="matrix(0.33 0 0 0.33 -8.19 -21.25)">
     <path stroke=" none" id="svg_8" fill-rule=" nonzero" fill=" rgb(51,3,13)" stroke-miterlimit="4" stroke-linejoin=" miter" stroke-dashoffset="0" stroke-dasharray=" none" stroke-linecap=" butt" d="m7.07848,-3.30693c0.391,-0.028 0.684,-0.367 0.656,-0.758c-0.055,-0.757 -0.083,-1.556 -0.083,-2.373c0,-0.421 0.008,-0.84 0.021,-1.257c0.012,-0.391 -0.294,-0.719 -0.686,-0.731c-0.401,-0.007 -0.718,0.294 -0.731,0.686c-0.014,0.432 -0.021,0.866 -0.021,1.302c0,0.852 0.029,1.685 0.085,2.475c0.027,0.373 0.338,0.658 0.706,0.658c0.018,0 0.035,-0.001 0.053,-0.002z" vector-effect="non-scaling-stroke"/>
    </g>
    <g stroke="null" id="SvgjsG2588" transform="matrix(0.33 0 0 0.33 3.74 -21.35)">
     <path stroke=" none" id="svg_9" fill-rule=" nonzero" fill=" rgb(51,3,13)" stroke-miterlimit="4" stroke-linejoin=" miter" stroke-dashoffset="0" stroke-dasharray=" none" stroke-linecap=" butt" d="m7.89448,-7.64693c-0.856,0.726 -1.767,1.547 -2.782,2.51c-0.284,0.269 -0.296,0.717 -0.027,1.001c0.14,0.147 0.327,0.222 0.515,0.222c0.175,0 0.351,-0.064 0.487,-0.194c0.997,-0.945 1.888,-1.749 2.724,-2.458c0.299,-0.253 0.336,-0.7 0.083,-0.999c-0.256,-0.299 -0.702,-0.333 -1,-0.082z" vector-effect="non-scaling-stroke"/>
    </g>
    <g stroke="null" id="SvgjsG2588" transform="matrix(0.33 0 0 0.33 -7.81 -18.83)">
     <path stroke=" none" id="svg_10" fill-rule=" nonzero" fill=" rgb(51,3,13)" stroke-miterlimit="4" stroke-linejoin=" miter" stroke-dashoffset="0" stroke-dasharray=" none" stroke-linecap=" butt" d="m7.09648,-7.76893c-0.084,-0.382 -0.459,-0.621 -0.845,-0.54c-0.382,0.085 -0.624,0.463 -0.539,0.845c0.293,1.328 0.695,2.559 1.197,3.657c0.119,0.261 0.376,0.415 0.645,0.415c0.098,0 0.198,-0.021 0.293,-0.064c0.356,-0.162 0.513,-0.583 0.351,-0.938c-0.459,-1.009 -0.83,-2.145 -1.102,-3.375z" vector-effect="non-scaling-stroke"/>
    </g>
    <g stroke="null" id="SvgjsG2588" transform="matrix(0.33 0 0 0.33 -1.87 -16.56)">
     <path stroke=" none" id="svg_11" fill-rule=" nonzero" fill=" rgb(51,3,13)" stroke-miterlimit="4" stroke-linejoin=" miter" stroke-dashoffset="0" stroke-dasharray=" none" stroke-linecap=" butt" d="m8.25748,-7.30393c-1.084,0.674 -2.154,1.217 -3.18,1.616c-0.365,0.142 -0.545,0.552 -0.404,0.917c0.109,0.28 0.377,0.452 0.661,0.452c0.085,0 0.172,-0.016 0.257,-0.049c1.107,-0.431 2.256,-1.013 3.414,-1.731c0.333,-0.207 0.435,-0.644 0.229,-0.977c-0.209,-0.333 -0.647,-0.432 -0.977,-0.228z" vector-effect="non-scaling-stroke"/>
    </g>
    <g stroke="null" id="SvgjsG2588" transform="matrix(0.33 0 0 0.33 -4.22 -15.99)">
     <path stroke=" none" id="svg_12" fill-rule=" nonzero" fill=" rgb(51,3,13)" stroke-miterlimit="4" stroke-linejoin=" miter" stroke-dashoffset="0" stroke-dasharray=" none" stroke-linecap=" butt" d="m8.75248,-6.51893c-0.411,0.044 -0.783,0.062 -1.241,0.065c-0.737,0 -1.487,-0.074 -2.229,-0.222c-0.381,-0.072 -0.756,0.173 -0.833,0.558c-0.076,0.384 0.173,0.757 0.558,0.833c0.832,0.165 1.675,0.249 2.504,0.249c0.478,-0.003 0.931,-0.024 1.392,-0.073c0.389,-0.042 0.671,-0.391 0.629,-0.78c-0.042,-0.389 -0.39,-0.659 -0.78,-0.63z" vector-effect="non-scaling-stroke"/>
    </g>
    <g stroke="null" id="SvgjsG2588" transform="matrix(0.33 0 0 0.33 -6.47 -16.83)">
     <path stroke=" none" id="svg_13" fill-rule=" nonzero" fill=" rgb(51,3,13)" stroke-miterlimit="4" stroke-linejoin=" miter" stroke-dashoffset="0" stroke-dasharray=" none" stroke-linecap=" butt" d="m8.75948,-5.33793c-1.02,-0.556 -1.926,-1.275 -2.693,-2.14c-0.259,-0.291 -0.708,-0.319 -1,-0.059c-0.292,0.26 -0.319,0.707 -0.059,1c0.877,0.986 1.911,1.809 3.074,2.442c0.108,0.059 0.224,0.087 0.339,0.087c0.251,0 0.494,-0.134 0.623,-0.37c0.186,-0.342 0.059,-0.772 -0.284,-0.96z" vector-effect="non-scaling-stroke"/>
    </g>
    <g stroke="null" id="SvgjsG2588" transform="matrix(0.33 0 0 0.33 7.75 -23.48)">
     <path stroke=" none" id="svg_14" fill-rule=" nonzero" fill=" rgb(51,3,13)" stroke-miterlimit="4" stroke-linejoin=" miter" stroke-dashoffset="0" stroke-dasharray=" none" stroke-linecap=" butt" d="m6.04548,-5.10393c0.03,0 0.062,-0.002 0.092,-0.006c0.579,-0.075 1.164,-0.1 1.739,-0.072c0.363,0.026 0.723,-0.283 0.741,-0.674c0.018,-0.391 -0.283,-0.723 -0.675,-0.742c-0.654,-0.031 -1.325,-0.003 -1.987,0.083c-0.389,0.05 -0.662,0.406 -0.612,0.793c0.047,0.358 0.352,0.618 0.702,0.618z" vector-effect="non-scaling-stroke"/>
    </g>
    <g stroke="null" id="SvgjsG2588" transform="matrix(0.33 0 0 0.33 7.96 -16.72)">
     <path stroke=" none" id="svg_15" fill-rule=" nonzero" fill=" rgb(51,3,13)" stroke-miterlimit="4" stroke-linejoin=" miter" stroke-dashoffset="0" stroke-dasharray=" none" stroke-linecap=" butt" d="m10.47247,-9.62994c-0.119,0 -0.239,0.008 -0.346,0.023c-0.868,0.095 -8.519,0.992 -9.712,3.183c-0.239,0.438 -0.244,0.913 -0.015,1.372c1.012,2.021 4.938,2.964 7.272,2.964c2.505,0 2.959,-0.904 3.007,-1.443c0.032,-0.365 0.106,-0.445 0.184,-0.448c0.096,0 0.198,0.015 0.309,0.028c0.167,0.021 0.346,0.041 0.53,0.041c0.61,0 1.107,-0.229 1.521,-0.703c0.602,-0.687 0.669,-1.787 0.177,-2.872c-0.59,-1.303 -1.739,-2.145 -2.927,-2.145zm1.999,4.359c-0.446,0.509 -0.834,0.368 -1.178,0.327c-0.153,-0.019 -0.298,-0.035 -0.431,-0.035c-1.059,0 -1.149,1.023 -1.18,1.36c-0.02,0.221 -0.656,0.531 -2.011,0.531c-2.446,0 -5.667,-0.99 -6.378,-2.411c-0.083,-0.166 -0.084,-0.296 -0.002,-0.446c0.712,-1.307 5.863,-2.329 8.959,-2.669c0.074,-0.011 0.147,-0.016 0.221,-0.016c0.905,0 1.665,0.782 2.017,1.558c0.329,0.723 0.322,1.413 -0.017,1.801z" vector-effect="non-scaling-stroke"/>
    </g>
    <g stroke="null" id="SvgjsG2588" transform="matrix(0.33 0 0 0.33 8.06 -26.39)">
     <path stroke=" none" id="svg_16" fill-rule=" nonzero" fill=" rgb(51,3,13)" stroke-miterlimit="4" stroke-linejoin=" miter" stroke-dashoffset="0" stroke-dasharray=" none" stroke-linecap=" butt" d="m7.12948,-12.24493c-9.758,0 -0.574,12.764 -0.574,12.764c0,0 10.331,-12.764 0.574,-12.764zm-0.15,7.048c-1.578,0 -2.857,-1.28 -2.857,-2.858c0,-1.578 1.279,-2.857 2.857,-2.857c1.579,0 2.858,1.28 2.858,2.858c0,1.578 -1.279,2.857 -2.858,2.857z" vector-effect="non-scaling-stroke"/>
    </g>
    <g stroke="null" id="SvgjsG2589" transform="matrix(0.7 0 0 0.7 -0.1 11.44)">
     <path stroke=" none" id="svg_17" fill-rule=" nonzero" fill=" rgb(51,3,13)" stroke-miterlimit="4" stroke-linejoin=" miter" stroke-dashoffset="0" stroke-dasharray=" none" stroke-linecap=" butt" d="m-52.48873,7.97651l5.52,0l0,3.76l-9.28,0l0,-28.72l3.76,0l0,24.96zm14.921,3.84c-3.24,0 -5.88,-2.64 -5.88,-5.88l0,-22.72l3.8,0l0,22.72c0,1.16 0.92,2.12 2.08,2.12c1.16,0 2.08,-0.96 2.08,-2.12l0,-22.72l3.8,0l0,22.72c0,3.24 -2.64,5.88 -5.88,5.88zm14.881,0.16c-3.04,0 -5.48,-2.48 -5.48,-5.48l0,-4.36l3.88,0l0,4.36c0,0.88 0.72,1.6 1.6,1.6c0.88,0 1.56,-0.72 1.56,-1.6l0,-3.8l-7.04,-9.72l0,-4.96c0,-3.04 2.44,-5.52 5.48,-5.52c3,0 5.44,2.48 5.44,5.52l0,4.32l-3.88,0l0,-4.32c0,-0.92 -0.68,-1.6 -1.56,-1.6c-0.88,0 -1.6,0.68 -1.6,1.6l0,3.64l7.04,9.72l0,5.12c0,3 -2.44,5.48 -5.44,5.48zm14.361,-0.2c-3,0 -5.4,-2.44 -5.4,-5.4l0,-17.96c0,-2.96 2.4,-5.36 5.4,-5.36c2.96,0 5.36,2.4 5.36,5.36l0,17.96c0,2.96 -2.4,5.4 -5.36,5.4zm0,-24.92c-0.88,0 -1.56,0.72 -1.56,1.56l0,17.96c0,0.88 0.68,1.56 1.56,1.56c0.84,0 1.56,-0.68 1.56,-1.56l0,-17.96c0,-0.84 -0.72,-1.56 -1.56,-1.56zm12.641,21.12l5.52,0l0,3.76l-9.28,0l0,-28.72l3.76,0l0,24.96zm12.841,-24.88l0,28.48l-3.8,0l0,-28.48l3.8,0zm12.801,22.08l0.16,-22.16l3.84,0l-0.24,28.88l-5.96,0l-3.24,-22.36l0,22.36l-3.84,0l0,-28.88l6.2,0l3.08,22.16zm16.041,6.4l-4.2,-15.76l-0.6,1l0,14.88l-3.72,0l0,-28.52l3.72,0l0,6.2l2.48,-6.2l4.6,0l-3.8,8.24l5.4,20.16l-3.88,0zm11.401,0.4c-3.04,0 -5.48,-2.48 -5.48,-5.48l0,-4.36l3.88,0l0,4.36c0,0.88 0.72,1.6 1.6,1.6c0.88,0 1.56,-0.72 1.56,-1.6l0,-3.8l-7.04,-9.72l0,-4.96c0,-3.04 2.44,-5.52 5.48,-5.52c3,0 5.44,2.48 5.44,5.52l0,4.32l-3.88,0l0,-4.32c0,-0.92 -0.68,-1.6 -1.56,-1.6c-0.88,0 -1.6,0.68 -1.6,1.6l0,3.64l7.04,9.72l0,5.12c0,3 -2.44,5.48 -5.44,5.48z" vector-effect="non-scaling-stroke"/>
    </g>
    <g stroke="null" id="SvgjsG2590" transform="matrix(0.43 0 0 0.43 -0.1 29.35)">
     <path stroke=" none" id="svg_18" fill-rule=" nonzero" fill=" rgb(51,3,13)" stroke-miterlimit="4" stroke-linejoin=" miter" stroke-dashoffset="0" stroke-dasharray=" none" stroke-linecap=" butt" d="m-67.26211,-4.78871l-2.76,0l0,5.64l2.78,0l0,1.9l-4.68,0l0,-14.28l4.68,0l0,1.9l-2.78,0l0,2.94l2.76,0l0,1.9zm8.548,-6.74l-1.9,7.16l1.88,7.12l-1.7,0l-1.04,-3.92l-1.02,3.92l-1.7,0l1.88,-7.12l-1.9,-7.16l1.7,0l1.04,3.94l1.06,-3.94l1.7,0zm4.928,11.28l0,2.98l-1.9,0l0,-14.26l2.96,0c1.32,0 2.38,1.08 2.38,2.4l0,6.5c0,1.32 -1.06,2.38 -2.38,2.38l-1.06,0zm0,-9.38l0,7.48l1.06,0c0.28,0 0.48,-0.2 0.48,-0.48l0,-6.5c0,-0.28 -0.2,-0.5 -0.48,-0.5l-1.06,0zm8.348,10.5l2.76,0l0,1.88l-4.64,0l0,-14.36l1.88,0l0,12.48zm8.488,1.9c-1.5,0 -2.7,-1.22 -2.7,-2.7l0,-8.98c0,-1.48 1.2,-2.68 2.7,-2.68c1.48,0 2.68,1.2 2.68,2.68l0,8.98c0,1.48 -1.2,2.7 -2.68,2.7zm0,-12.46c-0.44,0 -0.78,0.36 -0.78,0.78l0,8.98c0,0.44 0.34,0.78 0.78,0.78c0.42,0 0.78,-0.34 0.78,-0.78l0,-8.98c0,-0.42 -0.36,-0.78 -0.78,-0.78zm11.188,12.48l-2.04,0l-1.1,-3.02l-0.44,0l0,3.02l-1.9,0l0,-14.32l2.98,0c1.32,0 2.38,1.06 2.38,2.38l0,6.54c0,0.86 -0.44,1.6 -1.12,2.02l1.24,3.38zm-3.58,-12.42l0,7.5l1.08,0c0.26,0 0.48,-0.22 0.48,-0.48l0,-6.54c0,-0.26 -0.22,-0.48 -0.48,-0.48l-1.08,0zm11.268,4.84l-2.76,0l0,5.64l2.78,0l0,1.9l-4.68,0l0,-14.28l4.68,0l0,1.9l-2.78,0l0,2.94l2.76,0l0,1.9zm13.056,7.54l-1.98,0l-2,-14.28l1.92,0l1.04,7.36l0.96,-7.36l1.92,0l-1.86,14.28zm6.788,-14.32l0,14.24l-1.9,0l0,-14.24l1.9,0zm5.768,14.44c-1.52,0 -2.74,-1.24 -2.74,-2.74l0,-2.18l1.94,0l0,2.18c0,0.44 0.36,0.8 0.8,0.8c0.44,0 0.78,-0.36 0.78,-0.8l0,-1.9l-3.52,-4.86l0,-2.48c0,-1.52 1.22,-2.76 2.74,-2.76c1.5,0 2.72,1.24 2.72,2.76l0,2.16l-1.94,0l0,-2.16c0,-0.46 -0.34,-0.8 -0.78,-0.8c-0.44,0 -0.8,0.34 -0.8,0.8l0,1.82l3.52,4.86l0,2.56c0,1.5 -1.22,2.74 -2.72,2.74zm7.648,-14.44l0,14.24l-1.9,0l0,-14.24l1.9,0zm9.948,0l0,1.92l-2.38,0l0,12.42l-1.92,0l0,-12.42l-2.62,0l0,-1.92l6.92,0zm11.796,14.44c-1.52,0 -2.74,-1.24 -2.74,-2.74l0,-2.18l1.94,0l0,2.18c0,0.44 0.36,0.8 0.8,0.8c0.44,0 0.78,-0.36 0.78,-0.8l0,-1.9l-3.52,-4.86l0,-2.48c0,-1.52 1.22,-2.76 2.74,-2.76c1.5,0 2.72,1.24 2.72,2.76l0,2.16l-1.94,0l0,-2.16c0,-0.46 -0.34,-0.8 -0.78,-0.8c-0.44,0 -0.8,0.34 -0.8,0.8l0,1.82l3.52,4.86l0,2.56c0,1.5 -1.22,2.74 -2.72,2.74zm10.408,-7.66l-2.76,0l0,5.64l2.78,0l0,1.9l-4.68,0l0,-14.28l4.68,0l0,1.9l-2.78,0l0,2.94l2.76,0l0,1.9zm9.968,-6.78l0,1.92l-2.38,0l0,12.42l-1.92,0l0,-12.42l-2.62,0l0,-1.92l6.92,0zm9.948,0l0,1.92l-2.38,0l0,12.42l-1.92,0l0,-12.42l-2.62,0l0,-1.92l6.92,0zm4.908,12.44l2.76,0l0,1.88l-4.64,0l0,-14.36l1.88,0l0,12.48zm10.448,-5.66l-2.76,0l0,5.64l2.78,0l0,1.9l-4.68,0l0,-14.28l4.68,0l0,1.9l-2.78,0l0,2.94l2.76,0l0,1.9z" vector-effect="non-scaling-stroke"/>
    </g>
   </g>
  </g>
  <g stroke="null" id="svg_19">
   <g stroke="null" id="svg_20"/>
  </g>
  <g stroke="null" id="svg_21">
   <g stroke="null" id="svg_22"/>
  </g>
  <g stroke="null" id="svg_23">
   <g stroke="null" id="svg_24"/>
  </g>
  <g stroke="null" id="svg_25">
   <g stroke="null" id="svg_26"/>
  </g>
 </g>
</svg>