<?xml version="1.0" encoding="UTF-8" standalone="no" ?>
<!DOCTYPE svg PUBLIC "-//W3C//DTD SVG 1.1//EN" "http://www.w3.org/Graphics/SVG/1.1/DTD/svg11.dtd">
<svg xmlns="http://www.w3.org/2000/svg" xmlns:xlink="http://www.w3.org/1999/xlink" version="1.1" width="1080" height="1080" viewBox="0 0 1080 1080" xml:space="preserve">
<desc>Created with Fabric.js 5.2.4</desc>
<defs>
</defs>
<g transform="matrix(1 0 0 1 540 540)" id="74b5e1d5-03a3-4ec2-b355-48193dd9600c"  >
<rect style="stroke: none; stroke-width: 1; stroke-dasharray: none; stroke-linecap: butt; stroke-dashoffset: 0; stroke-linejoin: miter; stroke-miterlimit: 4; fill: rgb(61,16,25); fill-rule: nonzero; opacity: 1;" vector-effect="non-scaling-stroke"  x="-540" y="-540" rx="0" ry="0" width="1080" height="1080" />
</g>
<g transform="matrix(1 0 0 1 540 540)" id="07a27ada-734a-4b14-80bc-4bd4d9f5e9c8"  >
</g>
<g transform="matrix(3.46 0 0 3.46 540 540)"  >
<g style=""   >
		<g transform="matrix(1.3 0 0 1.3 0 0)" id="SvgjsG2587"  >
<path style="stroke: none; stroke-width: 1; stroke-dasharray: none; stroke-linecap: butt; stroke-dashoffset: 0; stroke-linejoin: miter; stroke-miterlimit: 4; fill: rgb(255,255,255); fill-rule: nonzero; opacity: 1;" vector-effect="non-scaling-stroke"  transform=" translate(-50.05, -49.75)" d="M 100.1 49.8 C 100.1 51.5 98.69999999999999 53.199999999999996 98.5 54.9 C 98.30000000000001 56.6 99.4 58.5 99 60.199999999999996 C 98.6 61.89999999999999 96.9 63.199999999999996 96.4 64.8 C 95.9 66.4 96.5 68.5 95.80000000000001 70.1 C 95.10000000000002 71.69999999999999 93.10000000000001 72.6 92.20000000000002 74.1 C 91.30000000000003 75.6 91.50000000000001 77.8 90.50000000000001 79.19999999999999 C 89.50000000000001 80.59999999999998 87.30000000000001 81.1 86.20000000000002 82.39999999999999 C 85.10000000000002 83.69999999999999 84.80000000000001 85.89999999999999 83.50000000000001 86.99999999999999 C 82.20000000000002 88.09999999999998 80.00000000000001 88.19999999999999 78.60000000000001 89.19999999999999 C 77.2 90.19999999999999 76.50000000000001 92.29999999999998 75.00000000000001 93.19999999999999 C 73.50000000000001 94.1 71.40000000000002 93.6 69.80000000000001 94.29999999999998 C 68.2 94.99999999999997 67.10000000000001 96.89999999999998 65.50000000000001 97.39999999999998 C 63.90000000000002 97.89999999999998 61.90000000000001 97.09999999999998 60.20000000000002 97.39999999999998 C 58.50000000000002 97.69999999999997 57.000000000000014 99.39999999999998 55.30000000000002 99.49999999999997 C 53.60000000000002 99.59999999999997 51.80000000000002 98.39999999999998 50.100000000000016 98.39999999999998 C 48.40000000000001 98.39999999999998 46.600000000000016 99.69999999999997 44.90000000000001 99.49999999999997 C 43.20000000000001 99.29999999999997 41.70000000000001 97.69999999999997 40.000000000000014 97.39999999999998 C 38.30000000000002 97.09999999999998 36.30000000000001 97.89999999999998 34.70000000000002 97.39999999999998 C 33.10000000000002 96.89999999999998 31.900000000000016 94.99999999999997 30.400000000000016 94.29999999999998 C 28.900000000000016 93.6 26.500000000000018 93.99999999999999 25.000000000000014 93.09999999999998 C 23.50000000000001 92.19999999999997 22.800000000000015 90.19999999999997 21.400000000000013 89.09999999999998 C 20.00000000000001 87.99999999999999 17.80000000000001 88.09999999999998 16.500000000000014 86.89999999999998 C 15.200000000000017 85.69999999999997 15.000000000000014 83.59999999999998 13.800000000000015 82.29999999999998 C 12.600000000000016 80.99999999999999 10.500000000000014 80.49999999999999 9.500000000000014 79.09999999999998 C 8.500000000000014 77.69999999999997 8.700000000000014 75.49999999999999 7.800000000000014 73.99999999999999 C 6.900000000000015 72.49999999999999 4.900000000000015 71.59999999999998 4.2000000000000135 69.99999999999999 C 3.5000000000000124 68.39999999999999 4.2000000000000135 66.29999999999998 3.6000000000000134 64.69999999999999 C 3.0000000000000133 63.099999999999994 1.3000000000000136 61.79999999999999 1.0000000000000133 60.09999999999999 C 0.7000000000000131 58.399999999999984 1.7000000000000133 56.499999999999986 1.5000000000000133 54.79999999999999 C 1.3000000000000134 53.099999999999994 1.3322676295501878e-14 51.49999999999999 1.3322676295501878e-14 49.79999999999999 C 1.3322676295501878e-14 48.09999999999999 1.4000000000000132 46.39999999999999 1.6000000000000134 44.69999999999999 C 1.8000000000000136 42.999999999999986 0.7000000000000134 40.999999999999986 1.1000000000000134 39.39999999999999 C 1.5000000000000133 37.8 3.2000000000000135 36.39999999999999 3.7000000000000135 34.79999999999999 C 4.2000000000000135 33.19999999999999 3.6000000000000134 31.09999999999999 4.300000000000013 29.49999999999999 C 5.000000000000012 27.899999999999988 7.000000000000013 26.99999999999999 7.900000000000013 25.49999999999999 C 8.800000000000011 23.99999999999999 8.600000000000012 21.79999999999999 9.600000000000012 20.39999999999999 C 10.600000000000012 18.999999999999993 12.800000000000011 18.499999999999993 13.900000000000013 17.199999999999992 C 15.000000000000014 15.899999999999991 15.300000000000013 13.699999999999992 16.600000000000012 12.599999999999993 C 17.900000000000013 11.499999999999993 20.100000000000012 11.399999999999993 21.500000000000014 10.399999999999991 C 22.900000000000016 9.39999999999999 23.600000000000016 7.299999999999992 25.100000000000016 6.3999999999999915 C 26.600000000000016 5.499999999999991 28.700000000000017 5.999999999999991 30.300000000000015 5.299999999999992 C 31.900000000000013 4.5999999999999925 33.000000000000014 2.6999999999999917 34.600000000000016 2.1999999999999917 C 36.20000000000002 1.6999999999999917 38.20000000000002 2.4999999999999916 39.90000000000001 2.1999999999999917 C 41.60000000000001 1.899999999999992 43.100000000000016 0.19999999999999174 44.80000000000001 -8.43769498715119e-15 C 46.50000000000001 -0.20000000000000862 48.30000000000001 1.0999999999999917 50.000000000000014 1.0999999999999917 C 51.70000000000002 1.0999999999999917 53.6 -0.2 55.3 0 C 56.99999999999999 0.2 58.5 1.8 60.199999999999996 2.1 C 61.89999999999999 2.4000000000000004 63.9 1.6 65.5 2.1 C 67.1 2.6 68.3 4.5 69.8 5.2 C 71.3 5.9 73.5 5.5 75 6.300000000000001 C 76.5 7.100000000000001 77.2 9.200000000000001 78.6 10.3 C 79.99999999999999 11.4 82.19999999999999 11.3 83.5 12.5 C 84.80000000000001 13.7 85 15.8 86.2 17.1 C 87.4 18.400000000000002 89.5 18.900000000000002 90.5 20.3 C 91.5 21.7 91.3 23.900000000000002 92.2 25.4 C 93.10000000000001 26.899999999999995 95.10000000000001 27.799999999999997 95.8 29.4 C 96.49999999999999 31 95.8 33.1 96.39999999999999 34.699999999999996 C 96.99999999999999 36.29999999999999 98.69999999999999 37.599999999999994 98.99999999999999 39.3 C 99.29999999999998 41 98.29999999999998 42.9 98.49999999999999 44.599999999999994 C 98.69999999999999 46.29999999999999 100.09999999999998 47.99999999999999 100.09999999999998 49.8 z" stroke-linecap="round" />
</g>
		<g transform="matrix(0.33 0 0 0.33 -0.1 -19.76)" id="SvgjsG2588"  >
<path style="stroke: none; stroke-width: 1; stroke-dasharray: none; stroke-linecap: butt; stroke-dashoffset: 0; stroke-linejoin: miter; stroke-miterlimit: 4; fill: rgb(51,3,13); fill-rule: nonzero; opacity: 1;" vector-effect="non-scaling-stroke"  transform=" translate(-50.08, -53.96)" d="M 58.481 16.24 L 13.827 26.987 L -0.06700000000000017 16.726999999999997 L -0.06700000000000017 78.22999999999999 L 12.834 91.67599999999999 L 58.94 71.351 L 100.232 87.728 L 100.232 23.146 L 58.481 16.24 z M 69.805 43.569 C 69.646 43.21 69.22500000000001 43.049 68.87 43.208000000000006 C 68.536 43.35600000000001 68.20100000000001 43.52100000000001 67.86500000000001 43.696000000000005 C 67.69200000000001 43.642 67.52100000000002 43.589000000000006 67.343 43.53300000000001 C 64.663 42.70000000000001 61.493 41.714000000000006 58.993 40.25900000000001 L 58.993 20.333 C 58.993 20.061 58.772000000000006 19.84 58.5 19.84 C 58.227999999999994 19.84 58.007 20.061 58.007 20.333 L 58.007 39.635 C 55.994 38.241 54.617999999999995 36.452999999999996 54.667 34.058 C 54.668 33.995 54.657000000000004 33.932 54.636 33.873 C 52.854 29.102999999999998 53.929 22.737 54.513000000000005 20.073999999999998 L 58.58500000000001 19.093999999999998 L 97.434 25.519999999999996 L 97.434 41.772999999999996 C 96.923 42.837999999999994 96.142 43.751 94.952 43.751 C 94.609 43.751 94.235 43.677 93.841 43.531 C 93.46799999999999 43.393 93.097 43.323 92.737 43.323 C 89.112 43.323 87.74 50.118 87.389 52.333 C 82.939 50.833999999999996 74.84899999999999 47.388999999999996 72.214 45.432 C 71.672 45.029 70.803 44.669000000000004 69.705 44.292 C 69.863 44.092 69.916 43.818 69.805 43.569 z M 27.313 40.328 C 27.349999999999998 39.964000000000006 27.108999999999998 39.625 26.743 39.559000000000005 C 26.549999999999997 39.523 26.360999999999997 39.572 26.211 39.67700000000001 C 25.938 39.51800000000001 25.666999999999998 39.364000000000004 25.398999999999997 39.224000000000004 C 23.324999999999996 38.138000000000005 24.564999999999998 31.574000000000005 26.019 26.932000000000002 L 46.753 21.942 C 47.154 22.393 47.59 23.016000000000002 47.859 23.825 C 48.38 25.387 48.178000000000004 26.341 44.068000000000005 28.91 C 42.886 29.648 41.981 29.847 41.182 30.021 C 39.038000000000004 30.491 37.813 31.006 35.535000000000004 36.817 C 34.24 40.119 32.753 41.724000000000004 30.990000000000002 41.724000000000004 C 29.805 41.724 28.547 41.053 27.313 40.328 z M 2.732 77.104 L 2.732 67.295 C 3.436 67.068 4.776 66.617 6.843 65.834 C 7.992 65.397 8.022 65.471 8.385 66.355 C 8.782 67.32300000000001 9.383 68.78500000000001 11.757 70.104 C 12.056 70.27 12.341 70.434 12.625 70.598 L 12.625 86.832 C 12.625 87.131 12.867 87.37299999999999 13.166 87.37299999999999 C 13.465 87.37299999999999 13.707 87.13099999999999 13.707 86.832 L 13.707 71.24 C 18.391000000000002 74.098 20.519000000000002 76.50999999999999 19.719 78.109 C 19.402 78.743 19.434 79.378 19.811 79.94699999999999 C 20.819 81.46799999999999 24.325 82.23599999999999 26.826 82.44899999999998 L 13.498000000000001 88.32399999999998 L 2.732 77.104 z M 58.884 68.317 L 28.644000000000002 81.64699999999999 L 28.635 81.50099999999999 C 26.467000000000002 81.63399999999999 21.605 80.84299999999999 20.645000000000003 79.395 C 20.468000000000004 79.127 20.458000000000002 78.869 20.614000000000004 78.557 C 21.736000000000004 76.313 19.408000000000005 73.461 13.708000000000006 70.074 L 13.708000000000006 31.445 C 13.708000000000006 31.146 13.466000000000005 30.904 13.167000000000005 30.904 C 12.868000000000006 30.904 12.626000000000005 31.146 12.626000000000005 31.445 L 12.626000000000005 69.44800000000001 C 12.497000000000005 69.37500000000001 12.376000000000005 69.302 12.243000000000006 69.22900000000001 C 10.176000000000005 68.08100000000002 9.676000000000005 66.86400000000002 9.311000000000005 65.97500000000001 C 8.851000000000004 64.85300000000001 8.405000000000005 64.17500000000001 6.4900000000000055 64.89900000000002 C 4.719000000000006 65.57100000000001 3.4850000000000056 65.99600000000001 2.7330000000000054 66.24300000000001 L 2.7330000000000054 22.27300000000001 L 13.214000000000006 30.013000000000012 L 24.891000000000005 27.203000000000014 C 23.787000000000006 30.879000000000012 21.919000000000004 38.530000000000015 24.934000000000005 40.109000000000016 C 25.232000000000003 40.265000000000015 25.535000000000004 40.44000000000002 25.839000000000006 40.618000000000016 C 25.651000000000007 41.70500000000002 25.491000000000007 42.78800000000002 25.372000000000007 43.841000000000015 C 25.328000000000007 44.23000000000002 25.608000000000008 44.58100000000002 25.997000000000007 44.625000000000014 C 26.024000000000008 44.628000000000014 26.051000000000005 44.62900000000001 26.078000000000007 44.62900000000001 C 26.433000000000007 44.62900000000001 26.741000000000007 44.36200000000001 26.781000000000006 44.000000000000014 C 26.878000000000007 43.14500000000002 27.006000000000007 42.268000000000015 27.149000000000004 41.387000000000015 C 28.392000000000003 42.10100000000001 29.670000000000005 42.72300000000001 30.989000000000004 42.72300000000001 C 30.989000000000004 42.72300000000001 30.989000000000004 42.72300000000001 30.989000000000004 42.72300000000001 C 33.211000000000006 42.72300000000001 35.00300000000001 40.91000000000001 36.465 37.18100000000001 C 38.655 31.597000000000012 39.687000000000005 31.37000000000001 41.396 30.996000000000013 C 42.231 30.813000000000013 43.27 30.586000000000013 44.598 29.755000000000013 C 48.686 27.200000000000014 49.591 25.857000000000014 48.807 23.506000000000014 C 48.561 22.768000000000015 48.2 22.167000000000016 47.829 21.680000000000014 L 53.427 20.333000000000013 C 52.807 23.29700000000001 51.917 29.347000000000012 53.666 34.13200000000001 C 53.644999999999996 37.09300000000001 55.494 39.20600000000001 58.007 40.79300000000001 L 58.007 52.44600000000001 C 57.732 52.24000000000001 57.345 52.250000000000014 57.092 52.50100000000001 L 56.372 53.21500000000001 C 55.736 53.84700000000001 55.099 54.48000000000001 54.459 55.10700000000001 C 54.18 55.38000000000002 54.175000000000004 55.83000000000001 54.449000000000005 56.109000000000016 C 54.58800000000001 56.25100000000002 54.77100000000001 56.32200000000002 54.955000000000005 56.32200000000002 C 55.13400000000001 56.32200000000002 55.313 56.25500000000002 55.45100000000001 56.119000000000014 C 56.09300000000001 55.490000000000016 56.732000000000006 54.85500000000001 57.37100000000001 54.222000000000016 L 58.00700000000001 53.59000000000002 L 58.00700000000001 66.35400000000001 C 58.00700000000001 66.62600000000002 58.22800000000001 66.84700000000001 58.500000000000014 66.84700000000001 C 58.77200000000002 66.84700000000001 58.993000000000016 66.626 58.993000000000016 66.35400000000001 L 58.993000000000016 41.37400000000001 C 61.42500000000002 42.70400000000001 64.27700000000002 43.62600000000001 66.66900000000001 44.37100000000001 C 66.299 44.59600000000001 65.92500000000001 44.83100000000001 65.54100000000001 45.09300000000001 C 65.21700000000001 45.31400000000001 65.13400000000001 45.75400000000001 65.35300000000001 46.07800000000001 C 65.49100000000001 46.27900000000001 65.71300000000001 46.38800000000001 65.94000000000001 46.38800000000001 C 66.07700000000001 46.38800000000001 66.21500000000002 46.34800000000001 66.33700000000002 46.265000000000015 C 67.09300000000002 45.750000000000014 67.81400000000002 45.320000000000014 68.52100000000002 44.95300000000002 C 69.91700000000002 45.40300000000002 71.05400000000002 45.817000000000014 71.61800000000001 46.23600000000002 C 74.68900000000001 48.518000000000015 83.74000000000001 52.21700000000002 87.644 53.47100000000002 C 87.69500000000001 53.48800000000002 87.74600000000001 53.49500000000002 87.79700000000001 53.49500000000002 C 87.891 53.49500000000002 87.98500000000001 53.469000000000015 88.06600000000002 53.417000000000016 C 88.19100000000002 53.338000000000015 88.27400000000002 53.20600000000002 88.29400000000001 53.05900000000002 C 88.60600000000001 50.62900000000002 90.01200000000001 44.32500000000002 92.73600000000002 44.32500000000002 C 92.97600000000001 44.32500000000002 93.23100000000002 44.37400000000002 93.49200000000002 44.47100000000002 C 93.99800000000002 44.65900000000002 94.48900000000002 44.75400000000002 94.95100000000002 44.75400000000002 C 96.01400000000002 44.75400000000002 96.81700000000002 44.27000000000002 97.43300000000002 43.58000000000002 L 97.43300000000002 83.60900000000002 L 58.884 68.317 z" stroke-linecap="round" />
</g>
		<g transform="matrix(0.33 0 0 0.33 -7.59 -25.83)" id="SvgjsG2588"  >
<path style="stroke: none; stroke-width: 1; stroke-dasharray: none; stroke-linecap: butt; stroke-dashoffset: 0; stroke-linejoin: miter; stroke-miterlimit: 4; fill: rgb(51,3,13); fill-rule: nonzero; opacity: 1;" vector-effect="non-scaling-stroke"  transform=" translate(-27.63, -35.73)" d="M 28.078 34.156 C 27.705 34.041 27.307 34.251999999999995 27.192999999999998 34.626999999999995 C 27.192999999999998 34.626999999999995 26.985 35.306 26.7 36.464 C 26.605999999999998 36.844 26.838 37.228 27.218999999999998 37.321 C 27.275999999999996 37.335 27.333 37.342 27.389 37.342 C 27.707 37.342 27.997 37.126 28.076999999999998 36.802 C 28.348999999999997 35.699 28.546999999999997 35.05 28.549999999999997 35.04 C 28.663 34.666 28.452 34.27 28.078 34.156 z" stroke-linecap="round" />
</g>
		<g transform="matrix(0.33 0 0 0.33 0.16 -17.95)" id="SvgjsG2588"  >
<path style="stroke: none; stroke-width: 1; stroke-dasharray: none; stroke-linecap: butt; stroke-dashoffset: 0; stroke-linejoin: miter; stroke-miterlimit: 4; fill: rgb(51,3,13); fill-rule: nonzero; opacity: 1;" vector-effect="non-scaling-stroke"  transform=" translate(-50.86, -59.38)" d="M 51.791 57.646 C 50.797999999999995 58.554 49.891 59.334 49.016 60.029 C 48.71 60.273 48.659 60.718 48.903 61.025000000000006 C 49.043 61.20100000000001 49.25 61.293000000000006 49.458 61.293000000000006 C 49.613 61.293000000000006 49.768 61.242000000000004 49.899 61.139 C 50.799 60.423 51.731 59.622 52.748000000000005 58.692 C 53.037000000000006 58.428 53.057 57.98 52.792 57.691 C 52.527 57.40200000000001 52.078 57.38 51.791 57.646 z" stroke-linecap="round" />
</g>
		<g transform="matrix(0.33 0 0 0.33 -8.19 -21.25)" id="SvgjsG2588"  >
<path style="stroke: none; stroke-width: 1; stroke-dasharray: none; stroke-linecap: butt; stroke-dashoffset: 0; stroke-linejoin: miter; stroke-miterlimit: 4; fill: rgb(51,3,13); fill-rule: nonzero; opacity: 1;" vector-effect="non-scaling-stroke"  transform=" translate(-25.82, -49.47)" d="M 25.917 52.025 C 26.308 51.997 26.601000000000003 51.658 26.573 51.266999999999996 C 26.518 50.51 26.490000000000002 49.711 26.490000000000002 48.894 C 26.490000000000002 48.473 26.498 48.053999999999995 26.511000000000003 47.637 C 26.523000000000003 47.246 26.217000000000002 46.918 25.825000000000003 46.906 C 25.424000000000003 46.899 25.107000000000003 47.199999999999996 25.094 47.592 C 25.080000000000002 48.024 25.073 48.458 25.073 48.894 C 25.073 49.745999999999995 25.102 50.579 25.158 51.369 C 25.185000000000002 51.742 25.496000000000002 52.027 25.864 52.027 C 25.882 52.027 25.899 52.026 25.917 52.025 z" stroke-linecap="round" />
</g>
		<g transform="matrix(0.33 0 0 0.33 3.74 -21.35)" id="SvgjsG2588"  >
<path style="stroke: none; stroke-width: 1; stroke-dasharray: none; stroke-linecap: butt; stroke-dashoffset: 0; stroke-linejoin: miter; stroke-miterlimit: 4; fill: rgb(51,3,13); fill-rule: nonzero; opacity: 1;" vector-effect="non-scaling-stroke"  transform=" translate(-61.63, -49.18)" d="M 62.543 47.395 C 61.687 48.121 60.775999999999996 48.942 59.760999999999996 49.905 C 59.477 50.174 59.464999999999996 50.622 59.733999999999995 50.906 C 59.873999999999995 51.053 60.06099999999999 51.128 60.248999999999995 51.128 C 60.42399999999999 51.128 60.599999999999994 51.064 60.736 50.934 C 61.733 49.989 62.623999999999995 49.184999999999995 63.459999999999994 48.476 C 63.75899999999999 48.223 63.79599999999999 47.775999999999996 63.54299999999999 47.477 C 63.287 47.178 62.841 47.144 62.543 47.395 z" stroke-linecap="round" />
</g>
		<g transform="matrix(0.33 0 0 0.33 -7.81 -18.83)" id="SvgjsG2588"  >
<path style="stroke: none; stroke-width: 1; stroke-dasharray: none; stroke-linecap: butt; stroke-dashoffset: 0; stroke-linejoin: miter; stroke-miterlimit: 4; fill: rgb(51,3,13); fill-rule: nonzero; opacity: 1;" vector-effect="non-scaling-stroke"  transform=" translate(-26.96, -56.74)" d="M 27.075 54.833 C 26.991 54.451 26.616 54.211999999999996 26.23 54.293 C 25.848 54.378 25.606 54.756 25.691 55.138 C 25.983999999999998 56.466 26.386 57.696999999999996 26.887999999999998 58.795 C 27.006999999999998 59.056000000000004 27.264 59.21 27.532999999999998 59.21 C 27.630999999999997 59.21 27.730999999999998 59.189 27.825999999999997 59.146 C 28.182 58.984 28.339 58.563 28.176999999999996 58.208 C 27.718 57.199 27.347 56.063 27.075 54.833 z" stroke-linecap="round" />
</g>
		<g transform="matrix(0.33 0 0 0.33 -1.87 -16.56)" id="SvgjsG2588"  >
<path style="stroke: none; stroke-width: 1; stroke-dasharray: none; stroke-linecap: butt; stroke-dashoffset: 0; stroke-linejoin: miter; stroke-miterlimit: 4; fill: rgb(51,3,13); fill-rule: nonzero; opacity: 1;" vector-effect="non-scaling-stroke"  transform=" translate(-44.79, -63.57)" d="M 46.066 62.128 C 44.982 62.802 43.912000000000006 63.345 42.886 63.744 C 42.521 63.886 42.341 64.296 42.482 64.661 C 42.591 64.941 42.859 65.113 43.143 65.113 C 43.228 65.113 43.315 65.097 43.4 65.064 C 44.507 64.633 45.656 64.05099999999999 46.814 63.33299999999999 C 47.147 63.12599999999999 47.249 62.68899999999999 47.043 62.355999999999995 C 46.834 62.023 46.396 61.924 46.066 62.128 z" stroke-linecap="round" />
</g>
		<g transform="matrix(0.33 0 0 0.33 -4.22 -15.99)" id="SvgjsG2588"  >
<path style="stroke: none; stroke-width: 1; stroke-dasharray: none; stroke-linecap: butt; stroke-dashoffset: 0; stroke-linejoin: miter; stroke-miterlimit: 4; fill: rgb(51,3,13); fill-rule: nonzero; opacity: 1;" vector-effect="non-scaling-stroke"  transform=" translate(-37.72, -65.25)" d="M 39.491 64.593 C 39.08 64.637 38.708 64.655 38.25 64.658 C 37.513 64.658 36.763 64.584 36.021 64.436 C 35.64 64.364 35.265 64.60900000000001 35.188 64.99400000000001 C 35.112 65.37800000000001 35.361000000000004 65.75100000000002 35.746 65.82700000000001 C 36.578 65.99200000000002 37.421 66.07600000000001 38.25 66.07600000000001 C 38.728 66.07300000000001 39.181 66.052 39.642 66.00300000000001 C 40.031000000000006 65.96100000000001 40.313 65.61200000000001 40.271 65.22300000000001 C 40.229 64.834 39.881 64.564 39.491 64.593 z" stroke-linecap="round" />
</g>
		<g transform="matrix(0.33 0 0 0.33 -6.47 -16.83)" id="SvgjsG2588"  >
<path style="stroke: none; stroke-width: 1; stroke-dasharray: none; stroke-linecap: butt; stroke-dashoffset: 0; stroke-linejoin: miter; stroke-miterlimit: 4; fill: rgb(51,3,13); fill-rule: nonzero; opacity: 1;" vector-effect="non-scaling-stroke"  transform=" translate(-30.97, -62.75)" d="M 32.748 63.274 C 31.727999999999998 62.718 30.822 61.999 30.054999999999996 61.134 C 29.795999999999996 60.843 29.346999999999998 60.815 29.054999999999996 61.075 C 28.762999999999995 61.335 28.735999999999997 61.782000000000004 28.995999999999995 62.075 C 29.872999999999994 63.061 30.906999999999996 63.884 32.06999999999999 64.517 C 32.17799999999999 64.576 32.29399999999999 64.604 32.40899999999999 64.604 C 32.65999999999999 64.604 32.90299999999999 64.47 33.03199999999999 64.234 C 33.218 63.892 33.091 63.462 32.748 63.274 z" stroke-linecap="round" />
</g>
		<g transform="matrix(0.33 0 0 0.33 7.75 -23.48)" id="SvgjsG2588"  >
<path style="stroke: none; stroke-width: 1; stroke-dasharray: none; stroke-linecap: butt; stroke-dashoffset: 0; stroke-linejoin: miter; stroke-miterlimit: 4; fill: rgb(51,3,13); fill-rule: nonzero; opacity: 1;" vector-effect="non-scaling-stroke"  transform=" translate(-73.67, -42.77)" d="M 72.734 43.528 C 72.764 43.528 72.79599999999999 43.525999999999996 72.826 43.522 C 73.40499999999999 43.446999999999996 73.99 43.422 74.565 43.449999999999996 C 74.928 43.476 75.288 43.166999999999994 75.306 42.775999999999996 C 75.324 42.385 75.023 42.053 74.631 42.034 C 73.977 42.003 73.306 42.031 72.644 42.117 C 72.25500000000001 42.166999999999994 71.982 42.522999999999996 72.03200000000001 42.91 C 72.079 43.268 72.384 43.528 72.734 43.528 z" stroke-linecap="round" />
</g>
		<g transform="matrix(0.33 0 0 0.33 7.96 -16.72)" id="SvgjsG2588"  >
<path style="stroke: none; stroke-width: 1; stroke-dasharray: none; stroke-linecap: butt; stroke-dashoffset: 0; stroke-linejoin: miter; stroke-miterlimit: 4; fill: rgb(51,3,13); fill-rule: nonzero; opacity: 1;" vector-effect="non-scaling-stroke"  transform=" translate(-74.3, -63.08)" d="M 77.791 59.312 C 77.672 59.312 77.55199999999999 59.32 77.445 59.335 C 76.577 59.43 68.92599999999999 60.327 67.73299999999999 62.518 C 67.49399999999999 62.956 67.48899999999999 63.431 67.71799999999999 63.89 C 68.72999999999999 65.911 72.65599999999999 66.854 74.99 66.854 C 77.49499999999999 66.854 77.949 65.95 77.997 65.411 C 78.029 65.046 78.103 64.96600000000001 78.181 64.96300000000001 C 78.277 64.96300000000001 78.37899999999999 64.97800000000001 78.49 64.99100000000001 C 78.657 65.01200000000001 78.836 65.03200000000001 79.02 65.03200000000001 C 79.63 65.03200000000001 80.127 64.80300000000001 80.541 64.32900000000001 C 81.143 63.64200000000001 81.21 62.54200000000001 80.718 61.45700000000001 C 80.128 60.154 78.979 59.312 77.791 59.312 z M 79.79 63.671 C 79.34400000000001 64.17999999999999 78.956 64.039 78.61200000000001 63.998 C 78.459 63.979 78.31400000000001 63.963 78.18100000000001 63.963 C 77.12200000000001 63.963 77.03200000000001 64.986 77.001 65.32300000000001 C 76.98100000000001 65.54400000000001 76.345 65.85400000000001 74.99000000000001 65.85400000000001 C 72.54400000000001 65.85400000000001 69.32300000000001 64.86400000000002 68.61200000000001 63.44300000000001 C 68.52900000000001 63.277000000000015 68.528 63.14700000000001 68.61000000000001 62.997000000000014 C 69.32200000000002 61.69000000000001 74.47300000000001 60.66800000000001 77.56900000000002 60.32800000000002 C 77.64300000000001 60.317000000000014 77.71600000000002 60.31200000000002 77.79000000000002 60.31200000000002 C 78.69500000000002 60.31200000000002 79.45500000000003 61.09400000000002 79.80700000000002 61.87000000000002 C 80.136 62.593 80.129 63.283 79.79 63.671 z" stroke-linecap="round" />
</g>
		<g transform="matrix(0.33 0 0 0.33 8.06 -26.39)" id="SvgjsG2588"  >
<path style="stroke: none; stroke-width: 1; stroke-dasharray: none; stroke-linecap: butt; stroke-dashoffset: 0; stroke-linejoin: miter; stroke-miterlimit: 4; fill: rgb(51,3,13); fill-rule: nonzero; opacity: 1;" vector-effect="non-scaling-stroke"  transform=" translate(-74.6, -34.05)" d="M 74.748 27.667 C 64.99000000000001 27.667 74.174 40.431 74.174 40.431 C 74.174 40.431 84.505 27.667 74.748 27.667 z M 74.598 34.715 C 73.02 34.715 71.741 33.435 71.741 31.857000000000003 C 71.741 30.279000000000003 73.02 29 74.598 29 C 76.17699999999999 29 77.456 30.28 77.456 31.858 C 77.456 33.436 76.177 34.715 74.598 34.715 z" stroke-linecap="round" />
</g>
		<g transform="matrix(0.7 0 0 0.7 -0.1 11.44)" id="SvgjsG2589"  >
<path style="stroke: none; stroke-width: 1; stroke-dasharray: none; stroke-linecap: butt; stroke-dashoffset: 0; stroke-linejoin: miter; stroke-miterlimit: 4; fill: rgb(51,3,13); fill-rule: nonzero; opacity: 1;" vector-effect="non-scaling-stroke"  transform=" translate(-59.54, -25.5)" d="M 3.76 36.24 L 9.28 36.24 L 9.28 40 L 0 40 L 0 11.280000000000001 L 3.76 11.280000000000001 L 3.76 36.24 z M 18.680999999999997 40.08 C 15.440999999999997 40.08 12.800999999999998 37.44 12.800999999999998 34.199999999999996 L 12.800999999999998 11.479999999999997 L 16.601 11.479999999999997 L 16.601 34.199999999999996 C 16.601 35.35999999999999 17.521 36.31999999999999 18.680999999999997 36.31999999999999 C 19.840999999999994 36.31999999999999 20.760999999999996 35.35999999999999 20.760999999999996 34.199999999999996 L 20.760999999999996 11.479999999999997 L 24.560999999999996 11.479999999999997 L 24.560999999999996 34.199999999999996 C 24.560999999999996 37.44 21.920999999999996 40.08 18.680999999999997 40.08 z M 33.562 40.24 C 30.522 40.24 28.081999999999997 37.760000000000005 28.081999999999997 34.760000000000005 L 28.081999999999997 30.400000000000006 L 31.961999999999996 30.400000000000006 L 31.961999999999996 34.760000000000005 C 31.961999999999996 35.64000000000001 32.681999999999995 36.36000000000001 33.562 36.36000000000001 C 34.442 36.36000000000001 35.122 35.64000000000001 35.122 34.760000000000005 L 35.122 30.960000000000004 L 28.082 21.240000000000002 L 28.082 16.28 C 28.082 13.240000000000002 30.522000000000002 10.760000000000002 33.562 10.760000000000002 C 36.562 10.760000000000002 39.001999999999995 13.240000000000002 39.001999999999995 16.28 L 39.001999999999995 20.6 L 35.12199999999999 20.6 L 35.12199999999999 16.28 C 35.12199999999999 15.360000000000001 34.44199999999999 14.680000000000001 33.56199999999999 14.680000000000001 C 32.68199999999999 14.680000000000001 31.96199999999999 15.360000000000001 31.96199999999999 16.28 L 31.96199999999999 19.92 L 39.00199999999999 29.64 L 39.00199999999999 34.76 C 39.00199999999999 37.76 36.56199999999999 40.239999999999995 33.56199999999999 40.239999999999995 z M 47.922999999999995 40.04 C 44.922999999999995 40.04 42.522999999999996 37.6 42.522999999999996 34.64 L 42.522999999999996 16.68 C 42.522999999999996 13.719999999999999 44.922999999999995 11.32 47.922999999999995 11.32 C 50.882999999999996 11.32 53.282999999999994 13.72 53.282999999999994 16.68 L 53.282999999999994 34.64 C 53.282999999999994 37.6 50.882999999999996 40.04 47.922999999999995 40.04 z M 47.922999999999995 15.120000000000001 C 47.04299999999999 15.120000000000001 46.36299999999999 15.840000000000002 46.36299999999999 16.68 L 46.36299999999999 34.64 C 46.36299999999999 35.52 47.04299999999999 36.2 47.922999999999995 36.2 C 48.763 36.2 49.483 35.52 49.483 34.64 L 49.483 16.68 C 49.483 15.84 48.763 15.12 47.922999999999995 15.12 z M 60.56399999999999 36.24 L 66.08399999999999 36.24 L 66.08399999999999 40 L 56.80399999999999 40 L 56.80399999999999 11.280000000000001 L 60.563999999999986 11.280000000000001 L 60.563999999999986 36.24 z M 73.40499999999999 11.36 L 73.40499999999999 39.84 L 69.60499999999999 39.84 L 69.60499999999999 11.360000000000003 L 73.40499999999999 11.360000000000003 z M 86.20599999999999 33.44 L 86.36599999999999 11.279999999999998 L 90.20599999999999 11.279999999999998 L 89.966 40.16 L 84.006 40.16 L 80.766 17.799999999999997 L 80.766 40.16 L 76.926 40.16 L 76.926 11.279999999999998 L 83.126 11.279999999999998 z M 102.24699999999999 39.84 L 98.04699999999998 24.080000000000005 L 97.44699999999999 25.080000000000005 L 97.44699999999999 39.96000000000001 L 93.72699999999999 39.96000000000001 L 93.72699999999999 11.440000000000008 L 97.44699999999999 11.440000000000008 L 97.44699999999999 17.640000000000008 L 99.92699999999999 11.440000000000008 L 104.52699999999999 11.440000000000008 L 100.72699999999999 19.680000000000007 L 106.127 39.84 L 102.247 39.84 z M 113.648 40.24 C 110.60799999999999 40.24 108.16799999999999 37.760000000000005 108.16799999999999 34.760000000000005 L 108.16799999999999 30.400000000000006 L 112.04799999999999 30.400000000000006 L 112.04799999999999 34.760000000000005 C 112.04799999999999 35.64000000000001 112.76799999999999 36.36000000000001 113.64799999999998 36.36000000000001 C 114.52799999999998 36.36000000000001 115.20799999999998 35.64000000000001 115.20799999999998 34.760000000000005 L 115.20799999999998 30.960000000000004 L 108.16799999999998 21.240000000000002 L 108.16799999999998 16.28 C 108.16799999999998 13.240000000000002 110.60799999999998 10.760000000000002 113.64799999999998 10.760000000000002 C 116.64799999999998 10.760000000000002 119.08799999999998 13.240000000000002 119.08799999999998 16.28 L 119.08799999999998 20.6 L 115.20799999999998 20.6 L 115.20799999999998 16.28 C 115.20799999999998 15.360000000000001 114.52799999999998 14.680000000000001 113.64799999999998 14.680000000000001 C 112.76799999999999 14.680000000000001 112.04799999999999 15.360000000000001 112.04799999999999 16.28 L 112.04799999999999 19.92 L 119.088 29.64 L 119.088 34.76 C 119.088 37.76 116.648 40.239999999999995 113.648 40.239999999999995 z" stroke-linecap="round" />
</g>
		<g transform="matrix(0.43 0 0 0.43 -0.1 29.35)" id="SvgjsG2590"  >
<path style="stroke: none; stroke-width: 1; stroke-dasharray: none; stroke-linecap: butt; stroke-dashoffset: 0; stroke-linejoin: miter; stroke-miterlimit: 4; fill: rgb(51,3,13); fill-rule: nonzero; opacity: 1;" vector-effect="non-scaling-stroke"  transform=" translate(-77.28, -12.75)" d="M 4.66 12.46 L 1.9000000000000004 12.46 L 1.9000000000000004 18.1 L 4.68 18.1 L 4.68 20 L 0 20 L 0 5.720000000000001 L 4.68 5.720000000000001 L 4.68 7.620000000000001 L 1.9 7.620000000000001 L 1.9 10.56 L 4.66 10.56 L 4.66 12.46 z M 13.208 5.720000000000001 L 11.308 12.88 L 13.187999999999999 20 L 11.488 20 L 10.448 16.08 L 9.428 20 L 7.728000000000001 20 L 9.608 12.879999999999999 L 7.708 5.719999999999999 L 9.408 5.719999999999999 L 10.448 9.659999999999998 L 11.508000000000001 5.719999999999999 L 13.208 5.719999999999999 z M 18.136 17 L 18.136 19.98 L 16.236 19.98 L 16.236 5.720000000000001 L 19.196 5.720000000000001 C 20.516000000000002 5.720000000000001 21.576 6.800000000000001 21.576 8.120000000000001 L 21.576 14.620000000000001 C 21.576 15.940000000000001 20.516000000000002 17 19.196 17 L 18.136000000000003 17 z M 18.136 7.619999999999999 L 18.136 15.1 L 19.195999999999998 15.1 C 19.476 15.1 19.676 14.9 19.676 14.62 L 19.676 8.12 C 19.676 7.839999999999999 19.476 7.619999999999999 19.195999999999998 7.619999999999999 L 18.136 7.619999999999999 z M 26.483999999999998 18.12 L 29.244 18.12 L 29.244 20 L 24.604 20 L 24.604 5.640000000000001 L 26.483999999999998 5.640000000000001 L 26.483999999999998 18.12 z M 34.972 20.02 C 33.472 20.02 32.272 18.8 32.272 17.32 L 32.272 8.34 C 32.272 6.859999999999999 33.472 5.66 34.972 5.66 C 36.452 5.66 37.652 6.86 37.652 8.34 L 37.652 17.32 C 37.652 18.8 36.452 20.02 34.972 20.02 z M 34.972 7.5600000000000005 C 34.532000000000004 7.5600000000000005 34.192 7.920000000000001 34.192 8.34 L 34.192 17.32 C 34.192 17.76 34.532000000000004 18.1 34.972 18.1 C 35.392 18.1 35.752 17.76 35.752 17.32 L 35.752 8.34 C 35.752 7.92 35.392 7.56 34.972 7.56 z M 46.16 20.04 L 44.12 20.04 L 43.019999999999996 17.02 L 42.58 17.02 L 42.58 20.04 L 40.68 20.04 L 40.68 5.719999999999999 L 43.66 5.719999999999999 C 44.98 5.719999999999999 46.04 6.779999999999999 46.04 8.099999999999998 L 46.04 14.639999999999997 C 46.04 15.499999999999996 45.6 16.24 44.92 16.659999999999997 z M 42.58 7.619999999999999 L 42.58 15.12 L 43.66 15.12 C 43.919999999999995 15.12 44.13999999999999 14.899999999999999 44.13999999999999 14.639999999999999 L 44.13999999999999 8.099999999999998 C 44.13999999999999 7.839999999999998 43.919999999999995 7.619999999999997 43.66 7.619999999999997 L 42.58 7.619999999999997 z M 53.848 12.46 L 51.088 12.46 L 51.088 18.1 L 53.868 18.1 L 53.868 20 L 49.188 20 L 49.188 5.720000000000001 L 53.868 5.720000000000001 L 53.868 7.620000000000001 L 51.088 7.620000000000001 L 51.088 10.56 L 53.848 10.56 L 53.848 12.46 z M 66.904 20 L 64.92399999999999 20 L 62.92399999999999 5.720000000000001 L 64.844 5.720000000000001 L 65.884 13.080000000000002 L 66.844 5.7200000000000015 L 68.764 5.7200000000000015 z M 73.69200000000001 5.68 L 73.69200000000001 19.92 L 71.792 19.92 L 71.792 5.6800000000000015 L 73.69200000000001 5.6800000000000015 z M 79.46 20.12 C 77.94 20.12 76.72 18.880000000000003 76.72 17.380000000000003 L 76.72 15.200000000000003 L 78.66 15.200000000000003 L 78.66 17.380000000000003 C 78.66 17.820000000000004 79.02 18.180000000000003 79.46 18.180000000000003 C 79.89999999999999 18.180000000000003 80.24 17.820000000000004 80.24 17.380000000000003 L 80.24 15.480000000000002 L 76.72 10.620000000000001 L 76.72 8.14 C 76.72 6.620000000000001 77.94 5.380000000000001 79.46 5.380000000000001 C 80.96 5.380000000000001 82.17999999999999 6.620000000000001 82.17999999999999 8.14 L 82.17999999999999 10.3 L 80.24 10.3 L 80.24 8.14 C 80.24 7.680000000000001 79.89999999999999 7.340000000000001 79.46 7.340000000000001 C 79.02 7.340000000000001 78.66 7.680000000000001 78.66 8.14 L 78.66 9.96 L 82.17999999999999 14.82 L 82.17999999999999 17.38 C 82.17999999999999 18.88 80.96 20.119999999999997 79.46 20.119999999999997 z M 87.108 5.68 L 87.108 19.92 L 85.208 19.92 L 85.208 5.6800000000000015 L 87.108 5.6800000000000015 z M 97.056 5.68 L 97.056 7.6 L 94.676 7.6 L 94.676 20.02 L 92.756 20.02 L 92.756 7.6 L 90.136 7.6 L 90.136 5.68 L 97.056 5.68 z M 108.852 20.12 C 107.33200000000001 20.12 106.11200000000001 18.880000000000003 106.11200000000001 17.380000000000003 L 106.11200000000001 15.200000000000003 L 108.052 15.200000000000003 L 108.052 17.380000000000003 C 108.052 17.820000000000004 108.412 18.180000000000003 108.852 18.180000000000003 C 109.292 18.180000000000003 109.632 17.820000000000004 109.632 17.380000000000003 L 109.632 15.480000000000002 L 106.11200000000001 10.620000000000001 L 106.11200000000001 8.14 C 106.11200000000001 6.620000000000001 107.33200000000001 5.380000000000001 108.852 5.380000000000001 C 110.352 5.380000000000001 111.572 6.620000000000001 111.572 8.14 L 111.572 10.3 L 109.632 10.3 L 109.632 8.14 C 109.632 7.680000000000001 109.292 7.340000000000001 108.852 7.340000000000001 C 108.412 7.340000000000001 108.052 7.680000000000001 108.052 8.14 L 108.052 9.96 L 111.572 14.82 L 111.572 17.38 C 111.572 18.88 110.352 20.119999999999997 108.852 20.119999999999997 z M 119.26 12.46 L 116.5 12.46 L 116.5 18.1 L 119.28 18.1 L 119.28 20 L 114.6 20 L 114.6 5.720000000000001 L 119.28 5.720000000000001 L 119.28 7.620000000000001 L 116.5 7.620000000000001 L 116.5 10.56 L 119.26 10.56 L 119.26 12.46 z M 129.228 5.68 L 129.228 7.6 L 126.84800000000001 7.6 L 126.84800000000001 20.02 L 124.92800000000001 20.02 L 124.92800000000001 7.6 L 122.308 7.6 L 122.308 5.68 L 129.228 5.68 z M 139.176 5.68 L 139.176 7.6 L 136.796 7.6 L 136.796 20.02 L 134.876 20.02 L 134.876 7.6 L 132.256 7.6 L 132.256 5.68 L 139.176 5.68 z M 144.084 18.12 L 146.844 18.12 L 146.844 20 L 142.204 20 L 142.204 5.640000000000001 L 144.084 5.640000000000001 L 144.084 18.12 z M 154.532 12.46 L 151.77200000000002 12.46 L 151.77200000000002 18.1 L 154.55200000000002 18.1 L 154.55200000000002 20 L 149.872 20 L 149.872 5.720000000000001 L 154.55200000000002 5.720000000000001 L 154.55200000000002 7.620000000000001 L 151.77200000000002 7.620000000000001 L 151.77200000000002 10.56 L 154.532 10.56 L 154.532 12.46 z" stroke-linecap="round" />
</g>
</g>
</g>
<g transform="matrix(NaN NaN NaN NaN 0 0)"  >
<g style=""   >
</g>
</g>
<g transform="matrix(NaN NaN NaN NaN 0 0)"  >
<g style=""   >
</g>
</g>
<g transform="matrix(NaN NaN NaN NaN 0 0)"  >
<g style=""   >
</g>
</g>
<g transform="matrix(NaN NaN NaN NaN 0 0)"  >
<g style=""   >
</g>
</g>
</svg>